<mxfile host="drawio.corp.amazon.com" agent="Mozilla/5.0 (Macintosh; Intel Mac OS X 10_15_7) AppleWebKit/537.36 (KHTML, like Gecko) Chrome/136.0.0.0 Safari/537.36" modified="2025-06-02T15:33:25.410Z" version="21.7.4" etag="zTYsiMvUBJwkwGJ7soYn" type="device">
  <diagram id="Edlrdswb_MO9wBAcUsW-" name="Page-2">
    <mxGraphModel dx="1434" dy="795" grid="1" gridSize="10" guides="1" tooltips="1" connect="1" arrows="1" fold="1" page="1" pageScale="1" pageWidth="850" pageHeight="1100" math="0" shadow="0">
      <root>
        <mxCell id="0" />
        <mxCell id="1" parent="0" />
        <mxCell id="Y3-uRsAepT4GnmPrBAEX-1" value="Users" style="sketch=0;outlineConnect=0;fontColor=#232F3E;gradientColor=none;fillColor=#232F3D;strokeColor=none;dashed=0;verticalLabelPosition=bottom;verticalAlign=top;align=center;html=1;fontSize=12;fontStyle=0;aspect=fixed;pointerEvents=1;shape=mxgraph.aws4.users;" vertex="1" parent="1">
          <mxGeometry x="40" y="263" width="78" height="78" as="geometry" />
        </mxCell>
        <mxCell id="Y3-uRsAepT4GnmPrBAEX-2" value="Devices" style="sketch=0;pointerEvents=1;shadow=0;dashed=0;html=1;strokeColor=none;labelPosition=center;verticalLabelPosition=bottom;verticalAlign=top;align=center;fillColor=#505050;shape=mxgraph.mscae.intune.device_os" vertex="1" parent="1">
          <mxGeometry x="200" y="270" width="69" height="64" as="geometry" />
        </mxCell>
        <mxCell id="7XxUG1S-9eU-qmTFgwDG-1" value="AWS Cloud" style="points=[[0,0],[0.25,0],[0.5,0],[0.75,0],[1,0],[1,0.25],[1,0.5],[1,0.75],[1,1],[0.75,1],[0.5,1],[0.25,1],[0,1],[0,0.75],[0,0.5],[0,0.25]];outlineConnect=0;gradientColor=none;html=1;whiteSpace=wrap;fontSize=12;fontStyle=0;container=1;pointerEvents=0;collapsible=0;recursiveResize=0;shape=mxgraph.aws4.group;grIcon=mxgraph.aws4.group_aws_cloud_alt;strokeColor=#232F3E;fillColor=none;verticalAlign=top;align=left;spacingLeft=30;fontColor=#232F3E;dashed=0;" vertex="1" parent="1">
          <mxGeometry x="350" y="140" width="840" height="590" as="geometry" />
        </mxCell>
        <mxCell id="7XxUG1S-9eU-qmTFgwDG-17" style="edgeStyle=orthogonalEdgeStyle;rounded=0;orthogonalLoop=1;jettySize=auto;html=1;entryX=0;entryY=0.5;entryDx=0;entryDy=0;entryPerimeter=0;" edge="1" parent="7XxUG1S-9eU-qmTFgwDG-1" target="7XxUG1S-9eU-qmTFgwDG-6">
          <mxGeometry relative="1" as="geometry">
            <mxPoint x="168" y="237" as="sourcePoint" />
          </mxGeometry>
        </mxCell>
        <mxCell id="xUQiXHp4aiqGHPB1Ps-X-8" value="Static Website" style="text;html=1;strokeColor=none;fillColor=none;align=center;verticalAlign=middle;whiteSpace=wrap;rounded=0;" vertex="1" parent="7XxUG1S-9eU-qmTFgwDG-1">
          <mxGeometry x="53.5" y="29" width="131" height="30" as="geometry" />
        </mxCell>
        <mxCell id="xUQiXHp4aiqGHPB1Ps-X-9" value="" style="group" vertex="1" connectable="0" parent="7XxUG1S-9eU-qmTFgwDG-1">
          <mxGeometry x="50" y="29" width="440" height="180" as="geometry" />
        </mxCell>
        <mxCell id="xUQiXHp4aiqGHPB1Ps-X-7" value="" style="rounded=1;whiteSpace=wrap;html=1;fillColor=none;dashed=1;" vertex="1" parent="xUQiXHp4aiqGHPB1Ps-X-9">
          <mxGeometry width="440" height="180" as="geometry" />
        </mxCell>
        <mxCell id="xUQiXHp4aiqGHPB1Ps-X-2" value="Amazon &lt;br&gt;CloudFront" style="sketch=0;points=[[0,0,0],[0.25,0,0],[0.5,0,0],[0.75,0,0],[1,0,0],[0,1,0],[0.25,1,0],[0.5,1,0],[0.75,1,0],[1,1,0],[0,0.25,0],[0,0.5,0],[0,0.75,0],[1,0.25,0],[1,0.5,0],[1,0.75,0]];outlineConnect=0;fontColor=#232F3E;fillColor=#8C4FFF;strokeColor=#ffffff;dashed=0;verticalLabelPosition=bottom;verticalAlign=top;align=center;html=1;fontSize=12;fontStyle=0;aspect=fixed;shape=mxgraph.aws4.resourceIcon;resIcon=mxgraph.aws4.cloudfront;" vertex="1" parent="xUQiXHp4aiqGHPB1Ps-X-9">
          <mxGeometry x="21" y="51" width="78" height="78" as="geometry" />
        </mxCell>
        <mxCell id="xUQiXHp4aiqGHPB1Ps-X-5" value="Amazon S3&lt;br&gt;Static Website" style="sketch=0;points=[[0,0,0],[0.25,0,0],[0.5,0,0],[0.75,0,0],[1,0,0],[0,1,0],[0.25,1,0],[0.5,1,0],[0.75,1,0],[1,1,0],[0,0.25,0],[0,0.5,0],[0,0.75,0],[1,0.25,0],[1,0.5,0],[1,0.75,0]];outlineConnect=0;fontColor=#232F3E;fillColor=#7AA116;strokeColor=#ffffff;dashed=0;verticalLabelPosition=bottom;verticalAlign=top;align=center;html=1;fontSize=12;fontStyle=0;aspect=fixed;shape=mxgraph.aws4.resourceIcon;resIcon=mxgraph.aws4.s3;" vertex="1" parent="xUQiXHp4aiqGHPB1Ps-X-9">
          <mxGeometry x="163" y="51" width="78" height="78" as="geometry" />
        </mxCell>
        <mxCell id="xUQiXHp4aiqGHPB1Ps-X-6" value="Amazon&lt;br&gt;Cognito" style="sketch=0;points=[[0,0,0],[0.25,0,0],[0.5,0,0],[0.75,0,0],[1,0,0],[0,1,0],[0.25,1,0],[0.5,1,0],[0.75,1,0],[1,1,0],[0,0.25,0],[0,0.5,0],[0,0.75,0],[1,0.25,0],[1,0.5,0],[1,0.75,0]];outlineConnect=0;fontColor=#232F3E;fillColor=#DD344C;strokeColor=#ffffff;dashed=0;verticalLabelPosition=bottom;verticalAlign=top;align=center;html=1;fontSize=12;fontStyle=0;aspect=fixed;shape=mxgraph.aws4.resourceIcon;resIcon=mxgraph.aws4.cognito;" vertex="1" parent="xUQiXHp4aiqGHPB1Ps-X-9">
          <mxGeometry x="310" y="51" width="78" height="78" as="geometry" />
        </mxCell>
        <mxCell id="VmEzqJkTYnfE0PAo-2xh-5" style="edgeStyle=orthogonalEdgeStyle;rounded=0;orthogonalLoop=1;jettySize=auto;html=1;" edge="1" parent="7XxUG1S-9eU-qmTFgwDG-1" source="xUQiXHp4aiqGHPB1Ps-X-13" target="xUQiXHp4aiqGHPB1Ps-X-6">
          <mxGeometry relative="1" as="geometry" />
        </mxCell>
        <mxCell id="VmEzqJkTYnfE0PAo-2xh-4" value="" style="group" vertex="1" connectable="0" parent="7XxUG1S-9eU-qmTFgwDG-1">
          <mxGeometry x="560.0049999999999" y="277.00500000000005" width="199.37000000000012" height="288.49999999999994" as="geometry" />
        </mxCell>
        <mxCell id="VmEzqJkTYnfE0PAo-2xh-2" value="" style="rounded=1;whiteSpace=wrap;html=1;rotation=90;fillColor=none;dashed=1;" vertex="1" parent="VmEzqJkTYnfE0PAo-2xh-4">
          <mxGeometry x="-44.564999999999884" y="44.56499999999994" width="288.5" height="199.37" as="geometry" />
        </mxCell>
        <mxCell id="VmEzqJkTYnfE0PAo-2xh-1" value="" style="shape=image;verticalLabelPosition=bottom;labelBackgroundColor=default;verticalAlign=top;aspect=fixed;imageAspect=0;image=data:image/png,iVBORw0KGgoAAAANSUhEUgAAAOYAAAF6CAYAAAANuSQ3AAABXWlDQ1BJQ0MgUHJvZmlsZQAAKJF1kE9LAlEUxY9mWeYiKNoU5CoQNGKsTS3CJCKQYbKiP7txNA3UXuNItKsP0C6kbRDRN7BFiyiibRAUtGpby4LZlEznaaUWPbjv/DjcezlcwO3Xhch5AOQLlpmYnQ6srK4FvM/ogBs+RDCgG0UR1bQ4W/Ctrc++h0vqXVju2pofKkd79+3D4OtV53VX+W9/y/Ol0kWD+sFSDGFagGuUrG1bQvIuuc9kKPKB5EydTyUn63xe61lMxMi35B4jq6fIT+RQssnPNHE+VzK+Msj0/nRhaYHazxpEHDNQEYDGCygQCPNnqn9mxmozMWyycwcmNpBBFhbno3QEckiT51CAgRGEyHKbgnF56983bHh7zDnxQjhueOoNcFZifLXhDU8xyhFwOSl0U/+5rMv2FNcjSp27K0B72XHelgFvEKg+OM57xXGqJ0DbI3BhfwICmmN7VWxNxQAAAIplWElmTU0AKgAAAAgABAEaAAUAAAABAAAAPgEbAAUAAAABAAAARgEoAAMAAAABAAIAAIdpAAQAAAABAAAATgAAAAAAAACQAAAAAQAAAJAAAAABAAOShgAHAAAAEgAAAHigAgAEAAAAAQAAAOagAwAEAAAAAQAAAXoAAAAAQVNDSUkAAABTY3JlZW5zaG90EsNzrQAAAAlwSFlzAAAWJQAAFiUBSVIk8AAAAdZpVFh0WE1MOmNvbS5hZG9iZS54bXAAAAAAADx4OnhtcG1ldGEgeG1sbnM6eD0iYWRvYmU6bnM6bWV0YS8iIHg6eG1wdGs9IlhNUCBDb3JlIDYuMC4wIj4KICAgPHJkZjpSREYgeG1sbnM6cmRmPSJodHRwOi8vd3d3LnczLm9yZy8xOTk5LzAyLzIyLXJkZi1zeW50YXgtbnMjIj4KICAgICAgPHJkZjpEZXNjcmlwdGlvbiByZGY6YWJvdXQ9IiIKICAgICAgICAgICAgeG1sbnM6ZXhpZj0iaHR0cDovL25zLmFkb2JlLmNvbS9leGlmLzEuMC8iPgogICAgICAgICA8ZXhpZjpQaXhlbFlEaW1lbnNpb24+Mzc4PC9leGlmOlBpeGVsWURpbWVuc2lvbj4KICAgICAgICAgPGV4aWY6UGl4ZWxYRGltZW5zaW9uPjIzMDwvZXhpZjpQaXhlbFhEaW1lbnNpb24+CiAgICAgICAgIDxleGlmOlVzZXJDb21tZW50PlNjcmVlbnNob3Q8L2V4aWY6VXNlckNvbW1lbnQ+CiAgICAgIDwvcmRmOkRlc2NyaXB0aW9uPgogICA8L3JkZjpSREY+CjwveDp4bXBtZXRhPgraUExPAAAAHGlET1QAAAACAAAAAAAAAL0AAAAoAAAAvQAAAL0AAC3NPk575QAALZlJREFUeAHsXXdgVMX23k1CCQk9EEIzCEqRLkUEEZAiTVBExS4I9vbD3vU9K3ZB1PfEjg2VXhWVIh2U3gKCEOkdkpD2w/Od78LesG9Tkd2c/LEn02fOzHe/e2bmznjbP3tfpufYX5jX+7fweB0pzr894B8WBkm3H+lhvDB3fi63n3CPF+W46+PUw1VumOaTJZz1YPws5bnakyXcT7s13vs9B6iCTJgG8l8DXgMmAeh6cDiAPjmADZj5Pxgtx+Ma8LZ7+h5hTK8yjJupdHwac7oY+D+9bj6uRfvPNJDPGjBg6quz8wqfzVdaA2Y+j0TLzkcD3nZP3S2M6dhoxpyiIG8AgP6390AfRZrDNJCfGjBg0pbMIXMaMPNzGFpebg14L3zyLtiYNCY5UI05RVf+mPODy25x69LcpoF804ABM8sr68lnYR0bVB9cBsx8G4OW0Uk04G37xJ0+jMkBaDbn/wboiD63nkSd5mUayB8NGDCdV3f3OqYBM3+GmOWSGw14L3jsdp91TDImJZkzzLWOx3CapozH9dDj4b4DvnrFylLPgymHRe4/Aukvvj8b75/eIfTh5bflRt+WxjSQLQ0YMN0PnGzanAbMbI0vi5RLDXjbPHqbr43pHqikROeVD6942d0hVLxoUanaoE69RXavf65IKfTYf0v+3Cju6at/Fzk/YaXI5NSjIh0mzQIYMPE/xZwfXXG71M9+TAMFoQEDpuuB4/9B4GtzGjALYjhantSAt80jt4K8OEAp88ictarWkDIe73W1yMqly4qcu3GtyMMpySJb16wjsngRMGt6JqozfxPifTb3Jwnfsmu7SLfNGREeLv4dzmkmskHlM0QuS9wk8pc1YOIMzZfAy+tXKR9feYfkn9Of226Dbfruu+9K0lmzZols3bp1TrOy+CGsAQMmH0SU7gdSlldoMKcBM4RRcRo0zdv64VuEosgkzuyqv4Gq/k48Hchkrqsv7CLNuqH1RSK9HrUFtbEXv/ww/DWfcGW8OtXOFP92dRuK7FEfDDh11W/iHvrDaJ90ZM5B7XqKf7d6TUS6f8asWChen835USTbSZlb5vzkqrvcRf1P99GjsJkrVqzoE++aa64R97Bhw3z8zVG4NWDAVEZ0HjT+Hkgu5jRgFm7gFHTrvec/NMiHMckkAQeqiznfHnif1LW+2njz/4CNWCSsiPg3qQ6bs8tLD4mb5fiTEwY/J/GmrYKN+Na0706a7rNByG/Hgf0S/uyEkSKf7gkmKh9VUtwDPnlTZJZ2aTtyypyf9rsb+WXz97vvUH/amI8++qikfP7550Vu2bJFZJEi0FdSUpK4W7VqJfKKK64Q+dlnn4mMiooS+fjjj4scMWKEyLlz54o877zzRH7xxRciS5QoIXLOnDki//Wvf4lctGiRyPr164t8+GG80XTq1Enc77//vsh33nlHpL+fQYMGSdDtt2O2+quvvhL3E088IXLHjh0iW7ZsKfK9994TGR8fL/K1114TuXXrVpF//PGHSNrg9erVEzfbU6lSJXGH6o8B04ApY9uAeXpB3NvqgYFgTNerGpksC8O4J0d0YP/0NBhp5nqsQz7z5QfS0sG9rxbZVdcvO7/wgLgD7RCaeD+YhIz55tRvkU7LY/2GXnun+MeWKi1yxJzpIvu36iAycf9ekQ+MQn2YLku7cgjQz665R/LN7s+ll14qUfmkf+aZZ8QdGxsrcsKECSK7desm8vBh7IiKjo4W91lnnSXyscceE8lZXTLk1VdDzz179pTwfv36iSST3nTTTeKuWbOmSDIxGZxM/OOPsMXXrFkj8VatWiXyt99g64vj2M/kyZPl308//VTk6NGYAzjjDMyKN2nSRPwHDhwo8tprrxXJdh84cEDc8+fPF/nAAxgXr776qrgffPBBkeecc45P+I033ijul156SWSo/hgwXUDP7iutAdOAWZAPBe9599/sa2Pmkjl/fuYtqefEZbBZXh39ubjvvxRPyq71m4q78/P3oz0EhB8GnvTACxKPjPnG5FHi5mwsma/BGWCAZ9SmLBIWLvGSdOfQ0xNhY63bBtvFvWMpt8z5+bX3oh0Bfnfv3i0xYmJiRNJm4rpl+/btxb9y5coiP/8cenMz5vjx4yW8e/fuImmj3XorvnLZt2+f+JcujTcH2ojNmmF2+4UXoE8y6GWXXSbxqUfahLfccov4HzlyRGRkZKRI/tD2a9y4sXgNGDBAJJnunnvwJjFz5kzxX7x4MZOKXLp0qchGjRqJTEhIEEkbdsaMGeImk4rj2A/z3bx5s3h9//33DApJacDkA8IlAzGnAdOAWZBPBO95gwcIY2Zhjhwy5y/Pvi31nLh0ocgh32P2MK5CRXGXLlFK5Pqtf4isVTVeZP92XUR+PGuayPVb8USc/OCL4p628jeRb0z6RqS/c2vPr91Qwh/p0kfki2qTztO9t2SG/NpbO/L6/0N9AvxyffLOO2EL0wZjsk2bNsm/ZLrExERxZ+pOJdqYK1fCdq9bt66Ef/zxxyKfe+45kWvXrhXJnx49esi/nM18+eWXxT1kyBCRr7zyikjOlrJerI+bMVNSUiQ+bVPOCk+fDpues8m0cfkGQGaXxMd+mC/Tz549W4I4a01G/Prrr5lE5JNPPimSTEob1ydSCDkMmMqUWR5M6u+POQ2YUQIDA2bBPA28Lf+vv4+NmWWAZpM5Z/x7mNRwktqYL3/7CWrMV0S1JWnjNa9dX8Jf6IvZwkdHfSTuRQmYBZzyEGbdftB1zNcmfCXhDvPRNtX6NdM9t0/3wOzkMxp/ySbMLjIdZV6Z84sbBkt9Av20aNFConA29LrrrvNJkpqaKu7evXuLpI3Zq1cvcZMxOUt69tlni39OGbN///6Sjow7fPhwcd9www0iV6xYIbJ58+YiyWy0MW+++WbxHzdunEjO0sbFxYmbP4888oj8+/vvv4ucOHEig0Ry3ZS2L9druR7LdUyuVzJxoWNMA6ZX+v44YH3d9HczpwETJoYBk4+O/JXeFvfd5MOYHIiBmLNY0WJSk57ntxd5bxc88bfv3yfuIRNhIyxagycx86tcAet2t2v81jVhMz30NXauLFHGnPoIbKHcNveJcZjdXLppvWThns093s4wCSeTH/f/3wD94kadXfZTQdp8tWvXlhgLFiwQSaZwJ+vSBbY2bTXOkuYXY9L2a9u2rRRNW5J7dzm7OnLkSAk/dOiQSNaD4WTqdu3aSTh/aDOy3V27dpWgUaNGiezYsaPIu+++WyTXR6dNw9zC/fdDn8aYoh6PATOXlxgZMNthBOmvAdNHHXl2eJvfcwMYkzYbbULXpAjP/OnW6kIp9LZO2GFSTveikinLl8Tsa4Tmt247Zhk37Nwm6broeiZr/qPakG9O+Ea8ko8mi5z6KGYN9+iZQEzv+ljlWFwyG3LceXC//PPeT+NFpmekiyQT5hdzftX/ARTo55c2EW1Grtf5ie7h7CXXJbl3tmrVqpIktzYmd868+CJmuclcnLRhfbhDZ8yYMeJ1/vnni+Ss7a+//sqoJ5XXX3+9+H/00UciaTOPHTtW3Jx1LlYMb1pk0gsuuEDCs8uYCxculPhu21U8Q+jHgOk8gHL2SmvA9EWBAdNXH3l1eZvdfb2vjemHOZvUwSzqOzffK2Vu0z2o7/84QdzTF88VGVUC0+hX6XeZ/Vq1E38y6JyE1eJ+7wc8Sf/cASZ1GE2BMu0xMObUFUsk/qvjvxTpjud2+1vndMfLK3N+PeBBqU+w/mzcuFGqzh1JJUuWFDdnSTkrW758+Tw1keuS3BtLm5u2dJ4yD+HEBswsr+7ZY04DZvZQYcDMnp7csbzN7rpOGJOzpg6zuJizxTn4WuCt/ndKHvd8NEzkwtXY++ikc14NYfs9pOuUPRo3l/jHbhcTyfhOuVoeZ0d/ePxViTdp+WKRr4/7Aulc9WI+bknmbFYLs76XNG4l6RN2/iVy7BLsODmUkoR8cwjQb25+SNLZj2mgIDRgwDRgFsS4sjzzqAHvuXde62NjOgxGBlGGalG/sRT1dn8w3t0fDhX3wlXKmH52CD18RX+J110Z89jtYuLOwnCu8qY/8ZrEm6yM+dpYrK859QvAnHWqnynpX7sCO1bEccLPNj3x4I7P0Y70TNfsrcP8J3+1/WbgwyfkZv+aBvJXAwZMA2b+jijLLV804G16+9VgTBcDOcykzNGiAWzMoQPukYLvHgGmWaDrkA4Dupjzob43SvyeTc8T+ebU0SLHzf1FZFq6L1Ox3J+eekPC8+vn1k9R37Z1G0mWVzfT9bNvseNo3V9/in92Z2tHDcKe0Pyqn+VjGjhRAwZMA+aJ48H+P0004G1yWz8fG9N9Fg8ZrKXu2Bk6EIx514i3pAkLV8LGZDw3c56tJww8dfkNEj9e98ruOXJQ3G9NBoP+/Dv2kjI9zxDafRjxEnTnEOZ6T9Ce4wFbkM5KegZQ1bIxEvnLhbNENtHza2vH4sSAAR+DmXce2CfhLD8Qc353y6MnVCL4/uVXLbaeeHr2nQHTgHl6jsxCXitvk1vBmNyDepwxlIHUxmysJ6T/57b7RWXb9u0VOXTK9yKnL5wjUuj32H/H8wGHhelZPB3Oha15R6deEv/reb+I/GYmvjJgOp4hxO87h+gZQlznZDxOnjqMrbZyxbLlJN/hN94rMlq/hmH93ps5RfzHL8Z65vH8UF/H7bKZ6f/drY9L+kA/ZcqUkSj792MPrzs+v/TnKXI8m4d7k93x8+rmGTznnnuuZMWTEvKab17T792L8VSuHPpt586dkiV3JuU1/2BLb8A0YJ4WY9aA6dsN3sa3XOVjY/pjTt4x0r1NB8nhjq69RZaPKiVyg+55feorzHKu37xR/MkwbpstIiJCwsPDIVPT8CU/bVyeITRBzxB6Rc8QYnh2mbNE8eJSTrWKcSK37t4hMlnPsOEOIXf9nHorJbvDv7/tCckn0A8Zk2fu9OnTB+UnJ4vkl/o8V/WHH34Q/4suuihQ1rkKDxbG5FctFSpUyFU7gz2RAZPLRH5eWR2AusINmPk79N2MWeiB2WjQlT6MyYHojzkZXrQYmOjStp2kh+7v2VfkmIX4bu/FL8Gcju3nh3mYnzsezxByTt377lOMBCefk+/I8Wdzshx/MqfMOfr2J7M1MsmYPDeVJ6YzMb+7rFatmnjxRHOe+cNwnpjOU+J49g9PveNdJcz3k08+kX8Zzjcefv84dCjWdWlj8jS/DRs2SDqeJMA3G55cwLN5mH9aWprE5/eXr7/+urh5VwrP+OF3puvWrZPwCy+8UCS/E+UJ9bQxCUx+3cI7UbZv3y7peLJCUb2xXDxD6MdrwNQFlhwypwETwDdgFszTwNvw5r5gTA5MMhKpR8etwzSueGS6BW9+LDUcuwizs8+P/K+4mY7x6HbbbPRnvJnPvZOjFnP29rWx+hWK1pv50TZlOf5kdplzzJ1PZat+ZEwyIE/N40nrPDFg2zZ8l8rT6vilP+8A4feSDz2Er1qmTp0q5b/99tsid+3aJZInsteqVUvcPKuHZw099RTqTUYiY/L2Mc4K82wg3v7FExSefvppyZfxeSL7TTfdJP5XXnmlSJ53Gx8fL26eOM/60ObmrCvfKMiYZEbeFsaT6HmSfY0aNSTfUP0xYLofRHzwuGxKN5ANmNhgYcAsmEeDt+GAy4UxAzFLIJtzwVt4tRmj65nPj/yP1Ng9oJ1yCAg/AJj5/HBJz50/6/XsINaDZ/3E6KxwzYqVJP7XusNn7EKuT0Jx2/eAUfKLOcfe9TQyDvBLxuR6JW/34isgT5WjLTdp0iTJkafU8Y4TxuOtX2Q62mY8WZ0nBdBm5AnurCZvySITMh8y4AcffCBR//oL361yPZUA7NChg4TzPkvm++abb8q/ZEIyOWeh2R73oV20dXkLGBmT5+/yzCDealanTh0WGdLSgMkHhEsGeqU1YOKzPKLDgElN5I/0NujfBzamDkyH0fhK5x6wars5TKjxFr6NWVMy5nOfvSc19MdQTjnM38Wcs154V9JP+A17aF8a9dFJ8+Ns472XXC3hPfW7T3Gc8LNoM2Ybn/wKtm+a+/Q81sMl/QF03N3PnJC7/3/JmLSh3LOy3LPauXNnyYSzrTyljvdB+i8BIWRMnmbHU+l4uxfT8zYtzoq6GZPnvbpv02I7eC/nVVddxSxF8n5P3pnC27/I3IFOCXQvl/hkfsxB25JvEO7wUHMbMF1AdB446m/AxJA3YJ5a6Hvr33SZD2NyYDqMlk3mXDTsc6n5jyt+E/nw+1jPIqOdWQ2zaNElIiV82brVaKkbGMqcs18E445fMk/ivTTqY5Gsn5uJz6xSXcJHDMJe3hlrV4h7yeb1Iu/piL25w36aIO4xc38W6c7Hyd9VLzdAx9/zrKQP9MMB7Y8xmZ63gS1ZskS8eKMy1we5nsn8mI53iPBuFNp+vDtkyhTsCWb8//wHtv+gQYPEK7uMyVu+eDM268d8ydi824Q2LG/IPnr0qETl1yw8pIsnv/NeTtqYvAWM67Dr16Mf2V6OK5YfatKA6efB4waoAbOVjH0D5ql5BBwD5qWYldXpziwDkszhZwBzlnTk4y9KjetUBnNx72xcmbLiH6lfd2zX82h7PQtmY3kOQ2t5v778vqQbp4z58jcfidsdj4xXNx7rdu/2v0fi/XcGmOLXNcvFPWLgYJGctf2vnqTg5OenfawfJQE64b5/oT4BfslwvAWLN0LTtvz2228lB85Okom43sdZV64fkonITH37YscV98DyPFiWw724TZs2lXIuv/xykbTZssuYzz//vKTjvZXceRMfHy/+3FHE9VqerM5ZaO4Y4g4mSp5j+/776G8yJtdZud7LdUsy8+DB6E8pPAR/DJgBHjwEJKUBE5dFGTAL9mngPeeG3rAx1bbj+iAHImUgZgkLD5ea3tgDX0/c0QU2HdOvTvxTwh/5GOuTiXoiAW2FejXPlvB2elLCtW0uEvcY3Uk0xGVjOvVRYHGnzKd3PynpKpXGd5DiOOHnjk+GiWvtnxtFavJjzfbCnU3mnDD4uRNy9f8vGTPQ95iXXXaZZEJGYHs+/PBD8ef9lu6SHnvsMfH697//LTIjI0MkZ0e5Lsp0nP3lziEyJvNZvRq2P5mc6WjjMj1nbxneqFEj+Zfl8Xq+N954Q/zvu+8+RhXJ+LzrhDdakzHd32NyBxDXR1lPvlH4ZB4CDgMm8GjAVIBzwBsw/1l0e+td3wuM6TCGM1KlZmQ8ykDMQpvz7BpgwCE33SH5VIupIHLBhrUit+sJCBfpebW0QdMz8cSfsXqZxHtv8hiRf27fKpL1oHTqo/Uvq0zZt00niR8TjTs5Ri+YJe61WzeJzO73nCzHLSfeD5tLMjsFPwcPHpRS+HVG9eqw5bnX1F8VGJ83Q/P2MH/xA/mn66mG3IlEZqcNSD2586GtuGfPHgni1zTueOaGBgyYfCA5zyP8w0klDjS3NGDiAWvALJhHibfudZf4MiYHah5tTjJn8eJYt7y37w3SgitatRVJ22ae3v41Xm3J2csWS3iyfuHvZsRAX6U4APJjKzr5aXhumXPSAy8UTI9YrqaBYxowYPJB5EgdF3T7AbgB0/BTkBrw1r22pzCmwyQckJT5xJxksupVz5D2HNSbovdnOc81TMIZnzJL/bReDKfMGi9AfrlkzskPYt22IDvH8i68GjBgGjAL7+g/jVvurXN1D9iYZEYypVsyPI87hMhs7smVHDMd6/cPMeeUh146jbvVqhbsGjBgOgDHK292J4MMmME+9E/v+ntr9+sOxnQGqK4b0O2WxpzSo1MfGXJ696zVLqg1YMDUB4/zKp1Nm9OAGdTj/rSvvLf2Vd1OPitLZnQzJt0ML6Q259RHXzntO9cqGLwaMGDyQZND5jRgBu+gD4aae8++8mK1MTH54bzSccCSGel2S4YXMuac9pgxZjAM8GCtowHTz84e5wHlx+Y0YAbrkA+OenvPvqKLy8Y05vy767je6g+gPzz+anD0sNUyKDVgwOSreQ6Z04AZlOM9aCrtPevyzrAxaStyoHqNOf/uRX/MOf2J14Kmk62iwacBA6bzIPrf32G6X2kNmME32IOpxt5j30XCxgymWltdTQMhrgEDZoh3sDUvODVgwAzOfrNah7gGDJgh3sHWvODUgAEzOPvNah3iGjBghngHW/OCUwMGzODsN6t1iGvAgBniHWzNC04NGDCDs9+s1iGuAQNmiHewNS84NWDADM5+s1qHuAYMmCHewda84NSAATM4+81qHeIaMGCGeAdb84JTAwbM4Ow3q3WIa8CAGeIdbM0LTg0YMIOz36zWIa4BA2aId7A1Lzg1YMAMzn6zWoe4BgyYId7B1rzg1IABMzj7zWod4howYIZ4B1vzglMDBszg7DerdYhrwIAZ4h1szQtODRgwg7PfrNYhrgEDZoh3sDUvODVgwAzOfrNah7gGDJgh3sHWvODUgAEzOPvNah3iGjBghngHW/OCUwMGzODsN6t1iGvAgBniHWzNC04NGDCDs9+s1iGuAQNmiHewNS84NWDADM5+s1qHuAYMmCHewda84NSAATM4+81qHeIaMGCGeAdb84JTAwbM4Ow3q3WIa8CAGeIdbM0LTg0YMIOz36zWIa4BA2aId7A1Lzg1YMAMzn6zWoe4BgyYId7B1rzg1IABMzj7zWod4howYIZ4B1vzglMDBsxT3G+ZWh4liz+YliH/TtyZJHLhQcSIj0CMq6qUkH/KFw0T6fXC35OJeF7HQ/1NBLUGDJinuPsISEoWb8CkJkz+rQED5ikaBwRihv6TrEy34uBRqcEPe5JFJiYpI2ZCHj0KaizjAaN2rFRM4rWMAZVGRSCcBBrGf05Ru9zFsH3/dD3c9Qo2twHzFPWYAfMUKTpEijFgFlBHEojMPkUZ8s/kVPGavQ9MufRgurgzvEVFlkgBc9aOChd3wh7E3x9RStwphxC/dmlxei6qVET+ObM0GJYM6lHmPFUEyvYeRbM8RVEtj5m+6Kec/howc6qxbMbnQGV0AyY1YTI7GjBgZkdL2YjjAFH/SfPgn92psA2XHgHzzVOm3JUKhov0QtZShmkXA+asUQI25N4UpJ+aCCr6fRc4cH8yZJQHDNpSmbNlLPKLi4YsCuLNRgvyFmXffrR3+SrUt1kTFFwcJnHeMi+EqQ2Y+dTpBkwDZj4NJcnGgJlP2uRsZFImGGPlETDcvP2wGTdgedIT5gU1xoWD8ZqVBLOdWwbUEqX+BDpCPZ409Vi6Cww5c2ua1DxhD2IcSUGE+JJoUOd4MFbDWMhitPnyqb1qMnsy0FzPj7+gPrNmo369uoHxmzb1pWyzObPXAQbM7OkpYCwDpgEz4CDJQQQDZg6U9XdUMpk72cYU2JCLDoEplx3BQN15IEWiFo+A7Vg/EkzSqUKk+FcuDkZRonSy5Wyquzwy1Z5kUNXcRJWbIbfsQxYNY5HDVQ2QfyW1OfO6vsjyWdGNf6Dcb0ejvdsTUePYsogxYCDaXTYG9WG7OGvMfEz6asCA6auPgC43UJjAgGnA5FjID2nAzKEWCcwDurd14RHYkIsPgzG3pYGhUg+BKTNhcnlKRxaXknqURXjLcnCzeIdJ6OFHsnxSdwrw4PlpI/4ZtxoMVq0McrymIRi6aillLDVas1seq+FmykOHUJNx41HusqUoNyxda5iMgpo1Qw6XXAMjN0yNTJ2MZvYmXRowYLoUEshJYBgwDZiBxkpewg2Y2dQe+MDjWZYEhvxVZ1v/zAQjHdRZ2CrFMLtaMwxUufwIBnBmOPx7YAOPp1l5MCaZizKb1eFHJSROz9xNKO8LZa6qujOoHxlTGTS3NiYZk3LefJT384+Q4VqTFs3BlLMmQWNcxuzeD28K9ZpDX3zA2SztyXvcgHlyvWTxNWBCJQbMLEOjQDwMmAHUyif79P0HJea8dDz5dxyGDVlEbbxmUZh9bFkKHKHLmZ7Pt4Jhj4bDxiJjNo8hl6ACOWVMd7Vnb1TG/A2SNuXVTdXGzCVjEogsb8sWPKImT0A5mxPgvqgjmLJFG5T30xgoZsXP0GBsZcS79C7oqVS5XBq7rEiISwNmgA42YPoqyIDpq4+CchkwA2iWr7DDE3dJzIRMMF+sUknPsliPrB4JJiiu1PdXEhjlo81g1tRwMESPMpDNK/xvxiRT8cHgzzZkvF83oqYjF4Opqms5/XTPatVyqJi/fPypgfmnoBme6dMw+zx/FmoWXx0pu/WBXmIqoJykwwj/9Dmdnd4L/zptINtfB3055cLbcRb2fwyYAUaAARMKMmAGGCj5HGzADKBQB5hb9kjMBC8YsiuEp4MyZoZSCxnprySkHLERm2RTw2B79SgPamjhZsxcMgYZbc4GlPfFQjA11zH7nQubuIqWy/oFaLazxYmMvWoZ8p+i65Yph+HueTnaVbcRJGdZKRMWoz4TXgfTli+Lhl5wE+JXb4z6OfXJpR6c9CHyjwEzQEdi+Hk8ww2YoikDZoABk0/BBswAikxTShq+GYy5Ph2n1XXVrzg6xXA9Uh/1KhIPgyk+3IBZWYcx1QZrXkFtLN9knv36lcjibXgkZOpnJW30uDz395UOY65H/C/nodzq5dCwK1uAmXLKmMx37x5w5rTxYLwVi+E+73zYyhdcjPyjon2pLgPV8IQpIf7wNt4cti5Autg6qO9F98HWLhoFfzJtgG4J+WADZoAuNmAaMAMMkQIJNmAGUCu3fr6zEYy5Lh3GZQ/dWdOxItxkGBpniWqDfbgBs5JpEaCObjo72jIWjEkbjkyxdieo5q3fELJrK75Wee8qlFNGp32Pl4cGzFunjDkH6aspY15xntqYMWCkQDYm883Q9dlF8/DPxO+Qb3oy6lVSJ5WLeVGuV+OHKcNjjtbjCSdzpoJRUw8gfhndAVW3B+rfoFe0/OPsofUl4AC9FHrBBswAfWrANGAGGCIFEmzADKBWAnNYwl6JuS4NzNW9DBJ2rgQbk0wTpntG9xwFs0zZCspI1Q8QW+ms5Fn6lQk3u5Ix1+0CowyZgXRHlXnf7AuGLc2FUq03y523Bum+mQ0gVdNZ2MtbwwasrN9DBmRMZOPZ/hf+mfI98tu9VQuEqekpqlRfROOnHEB4hjJqdBFQXpRSJ/fSejKRXxGl2NiaqF+dKyHLxoOKHcJ0/tHyC4kwYAboaAOmATPAECmQYANmALU6wFyPowHWHgVj9iwHyugU58uY7pMIAmTvfCXiZsyXfgJjpuh3j8P6gXpK+WHM+asRf9QsyGpqy/a5AEwUR8aEqRmoWh7u3NnxF9pJ4vLqGSqsr1eZc9E4AHjvUnic0Qopal+o07Iaz+tF/aincN0RFakMH1kO9Q1YwRCPYMAM0MEGTANmgCFSIMEGzABq5el0w9bsl5hrU2AD9ayAhJ3JmJoPmSBAtk4wbUR60MZ8cRqYJfUIQoZeCyahjelOt0DPc/3uZ6SrqvW7tK0ypq6fhmWTMVkfSnd59Kf8+X3MPu/8FT61ewPQjXr7vlGQaZnOkaRkx6Nw/2PADND/BkwoyIAZYKDkc7ABM4BCnVfZ1WDM1UfAAL3jkLBjHBhUTShPThmTx16SMBJ2IacXpmD6M/UwQoZeD+YrFcmYKJ+AWaiM+b2eKFA1Bvn06gDbNC6XjMn8s6iJDdbqzBiOnT0754GSa/WAzdmoT5QkzVBFcicQ83Pu9fRtFoMLrTRgBuh6A6YfBRkw/Sgmf7wNmKpHjjOqNVOpgl+JfLwext6mQ2CuNspAl+q6W6TeU8l1wkAEwPLISHronmeOngjwiZ5onqo3Sw8dqLOyyphMx/ouXokFxdFTaWOihEs6IV2se1Y2UAWZsT/JBmg+M985JDH3zId+anTHjqWGfbHFhyc6ODt7/OVr/qIBA6YOBI4zjgsDJjXhR1JhBkw/Csqbd6EHJscX1XgwFT7L9sHGW4gtsp71++B/RHe2lAIxeOqXxshsWwXMdFZZ2FjufJk/JQkrUW/Jmq8nEMxXxtQDEzzlIpDTc/rFf3EUw2wcuXg5mHLcFGXMigjq3hkJKrpsTL+zo06OAf5hA7Uhs9/BOu+++bDBq3eHzdmgL45kN8YMoE9XsAHTpRADpksh/pwGTH+ayRf/QgdM13jyHNW9ngmHMIs4eyeYci0mYT16fKwnRpmqQjFQxFqdPU3VU/Pi1PZrFQfGbF0VsqTGJ0MmwfTyLNW9qDN0j2vCNtQsRdct61dG/15UHztnGtVAfm6mo625ZCmYcsJkyCrKmN26KmNWRA3c6XM/iqhJ5DB3+G7558ACMGbVHljXPKdPefHnrWC5XUfNfT2DM6UB04CZy5FrwMyl4rKVrNACkzc1T9+BJ/vvakPuSQZDRSgVNVAb8vyK8I8pDuZavxeInqJn7WzYCUYqg620njOjMXA71kK6UsWQ7idlyN/1fNY9ejtXjKZrVwfxzj0TMk7Pg/XHdGTM334H40+aCMasrLd9XayMGVvJxZik8GwNk8CRFry7XSIdnAfju3IP1KNOH1C32ZiBdXhiDAOmAfPE8ZDr/w2YuVbdSRMWGmDyxWv5ARh54/VMnW3JeMKn6rVZ1YojZodK+P6xrp7PGqXrlCQabjzYq/dUTtPZ1J/XgilSM8B4ei2lp4hS2/4jylyI5mlUGe4uDRG/enlI3gDNddGT9t4xTzLmUj2BfbJ+5RGnjNmlJ2xMnveaBmI9nh0zOO4j/7GdLu/jTk0XphVc/MFWCUtajPpX6o4cavfRLVJqMngQfLzi7Bh3gf5eEY7XIKT/M2AaME86wN04yRLJgJlFJfnpUWiAmaoDaega3EGSkIo9rpFJmIVtGwdmOb8CZBm1CZ0HvGrd/SDnRoSjGRjKa3eCGkYtgVynNyzrh/ueanpWUFdlyGY62xqt31ky/4DA0PqQ8JYtARVOHQsqjtNZ2I698EZwVG8dm/EVwg/uRny9lMwToZt2w9NRcrgahWEevGFEeCHDPdBXuPozPEPvcimZgfKq9sKOn9p9q6OmZEwe2ZDdVwGOdiqG7hCXBkwDpgxxA+bphfTCA0x9Yr+1Gns6t4WBGS+IREDPM3RaVPuHTMQHdSAGo83Jr0v+1Fne/84EQ+1XxurVABzcvh5ma1kOhwXLozu7crneWTL9e5RXURmz/aVgsCN7YcxN/0DrswNuntkTrvqJUFnEA0YN92DWOsLrksqY4cqkngzotazeD1rpEhyKdHbfeGlCpp555NEFzaREvLkcTcS0tFeZtFhlvFIUjQXjhrkP0s2uQoI8ngHTgClD2IB5eiHZW6NGDXl0ZuiTzC1pQ7n96fYXTv/0dDyh03Q6kOnoP3jwYNHIyy+/XKCaSVUmeGMVnuw7PLAx20ejfl2qY8cKmZFMtltnXXcimaeG7oWNBBF53AyXruXs1K9CPvkV+W9XxurVGIzZpg4Yk+kpc6uE5QvAcL+MRnlct2yrjFlKzwA6pDuW0pXivWQyUr4yl9eDfMhkrB/dPD+X+mL8MJ12LVYeCipWGrPbhzfhlMG/vl4mTUxajVncEhm+NmxmOGzYYnViJV7ZXueJLHZmZZFePSNIHCH8Y8A0YGJ4GzBPK5h7V65cKYwZppsYKSMi8MSjm9Kfv7/w8HAwAyXjud0FrRWHMZeD+raTMUuBGTorYyaBeDzLd8B/0jrIbXsgb2sFBmgch3a5Jxd5IsEO/WrkEz0fdtcB2HSXNAFjtlYbk4xD4sqpHsjsq9XGXKg3PcfoOmaz7ujHClU4v5zTEnIZXxt2KAGf52x8a7ZkFHkQX51kRkGfGTiA3cNZ3sgj6J+iSdg0nFEObzalr8WR7UVrnyH5hBWB/nNZu9M+mQHTgFkwg9SAmSe9FrrJn9d/PywK256JJ3FrBWbt0mCWmbqH9bdE6JU7ZfTB7bmsHpjn3Kp4YuuGIMfWdBhTZ2U//QXMsFvdPZpixLZugPLYe7Th6A4kyZRcFjyk+e9OhJFbDCazp2xl1LeofuXCfLl3lbYi/QPJrF+H4E3geH6ag74ar3xuqnhEbsVR7RnxqFhsz8biH1W7kiZAPslrYXsenjIT/hs2igyvWUVkmZuvgLuMLgi7X1mQKuh/DZgGzBwNYgNmjtSV68iFDpivLYbtsikJ65ixul6XnAYm234QDFO6KGS9GOi2XTzc8eUgi0BkUbzDmHqv5Eg955WM2b05yjmvPhiTTEmZJUOXB5kySWd9k3W2mP48GZ2z4vpGeYIJC2Y6PrsKhmU8MijvYKGbMks6JlTKZDuO6H2i24eD+YrEwDavcnt7aVFULXx14rxqsJ2onidlLZjy0MjvJSQjEUxa8s4B4i7esC5SsECmDxFpwDRgylAmvghAA+Y/i/BCB8whc8GYa/aBMTN0S150JNy19DauFvrVR+NKsCWjYZKewDzoODIVuzFVZ3VXbgQTjdXT7g5jo4ung9qYbZuBMYu78z2OEGYpkuWkYgOOZ9UcFJS4AhSTrreLce+rs2FAGYi3bYV7UK8wvdfScXMPrN4tEuHFeiL3wobxzhHundUHmlfjRXCnkN7idWQHvs8sugM7ezIbYF2yxr3dfBVHG1HryQdDpr567BsxUuKnLVkqMrJHZ5HRF3dAPlnfreEf5L8GTAOmDOEwA+ZpBeVCCEysoyXsB2OV1yuPz68Od3OdxYwrCSPSbcK4CY1MdiAJj/xFq8FI85dDbtGvS3Tce3jTcwvdM9u0ERi5VCnk7C6Po4Wznil6St8SPdtn43xdD8QGGg9vdOae14hMhIcrQxZRGabMGe4wpO7A4d5YMqCzJ5Z7ZX2/LnF/dUKmTTmEM4CilOK9LeOlKVUHdUGTqDgyptNQhzrFZ99n34hMW7BAZLGO7UVGd79YZKjuBDJgGjBlgBNgEQZM0cc//VPogPnq3GTR+RY926eN3orVqw5szGIgTo/7Qc6O4oOes69r/wQjzVwKhly3CTGTD+PJf4ae51pMp0u3bII/T0Q4pzaYslkzMHRVXR8N03o4DKpEwtPm9up65f7tCMjQCikheo51rFTEq8zocWxLX3+GU5JJvVpf7oFlOGdlj/v75hem6ZI3/gVFTJkvMi0eX5tUeaCfuMN4RAMXYhHb+c04hOnm/SM+RfrVK0RG3XiDyBItmiOu2ZjQQ7D+ckueAdMXSMcBp5NCCmAD5j870gsfY/4KWykxBQzVRWdfu9ZVitL+QKj/zjkC4vW88iVssx16YnsUTEZPq3PAhE3qwoPfaS5bBgAsmQ+ZAZPX07gh4rfrhnpERcMd6K4PMni62pipSQowrUeEnuoXFg5A+m9R/oak7cPs97anR0jGRbSCkReD6Up1ain+3mJY32TpGUlQbNKMWeKVPH06gnThuPSdd4o7IhazvB5jTKouOKXDmAbMU9KBBsy8qbnQMeYrM/FETtRDuLpUgwK71/NlTPBVVuWSoWhjjv4Zs5Sb9ST1zs2RT/UqyCHadZ9lkp5ksEZv51q1CAzXuAXi19Y9tOEwebNWwO2jRLhlKeqxYSJkqUqIWLMrGClaz8V17qN055Nvbl9m3v/TYsk55cvxIsOi0bDwWlB8xFnVxZ+vzmkbEsSdvn6dyMyjYN7IS3qLu0Tr1ohfVJnWMcLFO2R+/h8AAP//aMKeMAAAHl1JREFU7V15eFTV+Z6Z7GSSAGFP2EFZRJBFqyCrBBQrFpClWrvvaq3axbZP+zx2dWkftWqrT2txQQGhLlB/UhZBWYJssomALAbCTiAhezLJj77feYfMTeLMZBmTky9/3O+e/Z73u+98+c459xx35cU/Vwv4K6uQTj72fjFujhVHQ07qKvFTBkhYQi6XmzcOSbQqDGpvrC5DjqwTEpExQurpliY1eBMCayoqlHx7P5IH2rNF5JCrJd/lg6R8VIyj4dqC5jmO7pDnOPi2yOROUqD3jbG48XaIgnS7A5+ntmrrHm8eyFSQ++5W3JXMXwrp8UrHovoI8NF9uyHe7ZZy5QcPIOz7ZD9kZWkhZMItt0K2GjkS0h0r/XI1en/QXMQv7hZHzDVCzKNFQoAbu8uLOmWgvLjUQKivb6FU5yoplRcrxRtYku8NJesvK5W7oiIpl2AIHGPeN+YLKs0PzsF18gJ//IoQM6WbPMfAL8ehiuR0qdjt/8kJJFDQdmrNUHM97G9laTlKFry/CbJ42SqpqTAf0p1AgvkkvljiXd4EhOMnTIBMuFYI6UlsJfnYgISsuyoxlZj1fKmVmPUEsMbiLY+Yq8RUZRd7AMhNPcWy3DhALCZfM0+g4asRvKqR/BeX0iPV+7Mwnj/0DDMD4xkOJlme5Q6tLUCRj+eJCW9r/kXvd3si4n0lYkkPLshGuDgvFzKqUuI9rhKEPW6xcNEukVFuwctjwtEmPcol8QyzXKL5xyN2wjDUlzxGZKVPTLvv7Flp/8OdkL5seR6XS9Kj07sgPnbgAMjojh0h3dHG1WCHEWvvRYnZU4n5v9dbidm0SN5iiFlqXJhHV4iFOGJcmfHdxbTdNtz81NNkGj0F+4F2Wi6faSf7qNyUFklFffqZ+uuo/0rjS7qNJfYZn/b4DrGQHy0+h5oLD4vl6zBABlkG3JmK+NIceZBTc88gnJ9zAjLGLXhEG8sY45b6olwSH+OW+mghY5jPWFi3CZf5xGJHR8kPXdyU61B/8rQMyMoywcMdEyYOToBRm/0XJaYSE2+5ErNpkb3FEJPTJU+/K77TjqNiGj1mVPXqXvJLnzFIftG7pEo42vzA12Y5K4wly78g9a1eKfVvy5SE9E5i4qbOER+pfWep1/8aOIKM989iVUgGtlN4SizPnrcuIOuxTBmNrSwxlq1Swp0Gyahmvzs7IV9cG7GgxUclvbxUfER/vyqlXo9L+uF2GQtnpjHoA/Jx3cYn9Jj0guXvyaN/ckjamzQSMnmqWEwX55fovLNDUurSlQ9EeSmlRd0pMZWY8sIrMZsU8VsMMfmDnZ0jFuGNzWIR9h6RcImZ+E+NF5sw+gqxdEP7ikxtK/HGhXJdMBZyj1kosG6NWMpzJyVfihgsV6/eou+RGWIxO6VLff63gCbIRNCXZHpRjljerI3yC3JgmciSM+IDJqZIu664PBSJzpV+tekbj3DfO2SUM6mbmf9jxdJthi5Jx/NcSvjsu/NzFyFD+abtkLGTrodMvoUW0/xr4Ryu/uxqW2yqElOJGfjyKzED8ficQi2GmE58i8TFcn14QCxM5i75Rc8+JjlLzYqcXh3lTR01RGR8rMitmyT/7h0ik2Ikvr0MgrqGfUEs48BhIhMSHZbSPJB/0NGEi/KkvjP75bkO/Fce9MROGfXkEj9vmviUPcd7pWSl5Dv+xmmEvWmxkN3niMX0pjsspmmvmpBuVIuuFsEHNwm5L7yGu/ItH0LGZIyBTLllsuSgT6kWU/AIclViKjEDXxElZiAen1OoxRHT8UPvh/1srjhdm3cbS/ixyFPHJN7jE2mm7VzRPnmD27WWKvr1l/BVXzCjr53MGy7F/O04b0rN4FNulljIw+vEdzySKbKiQHzI1p0lvcNVUm/P0WIpk9JlLeyx9SdRdfb8o5DedPExu87pinBiehKkm6OiCNXjQiDN6On5ua+gMh8t5sRxCCffcqM0ohYzLLCVmAYuJWZY743LpcQME7Dwsrc4YjrhoUEz9s1VJobKdfS4WMxt28RS7dwu4aJzkrNvL6lp9ASxkL37iQ9JF8r/3joapOHIOy4tZ22WBrM/kHbOHRJfMcVY4rb9Jb3naPERO5r5Sb/lMx04seE4Wjo+/zBkYroMC3eZ09OEaTFr9nWRKZyLv4OCx/m581Dat1U+84qdOB7hpC9OkVrZcQIUTlstMK8S0yhdiRnm26/EDBOw8LK3eGI64eL7xnh+2Dz/JbFcWfslZfIUsTxXjxWLyYUqlCxvFtK4is2859HtYhmzNooFPmPmQd0+qT+1t/iU3UfKqGracPEV45O5BMnUTFNvgic3yHDyyfnygK3MKGzn2ZchRyu/j1lPi+kEyLSf++LLuCvbshkyLuMGyKQpN0sOllOLKXgEuSoxHQDx/WG0EpNIGOkEyEQrMR041TOoxAwCIF2jBc+L73dwlxTImCqWZ9gYYzFNPfz6o9x8/XH6oFjGg2vFUp7YLqauOEcsZEpHCXe/VupLHyFrWlt3FYvJ+vyPyf+5GWEs56kNRxBzdv4eyIR0GbVtP7s/wq3SxWn1+6YsX1fpIGjuSy+hprItmyDjMzIgvVO+KC0wf7V/KSRZr4EIKDED8agWUmJWg0QiSDSTrMSsBac6RisxgwBXIYbOtfA5WWlzeJeYrAnTRA4fLxaO76nbOJUFZk3u9kXiM2ZnimnzeSTcbaiEe46S8u36iowxe//4N81yWkjn85qGT2/IQsq5BWLSE9LEYqbOHoT4hPQ2kGFbTGORK8sNED55/ovzJQFPkvfqPITLt4uPGTtOfEzvpJsknx8g06Eo859GjPQ7oDINuJSYQV4CJabhlRIzyJvSsMlKzCB4kpiLnhWL+ekO+cUfN934mDfILz8NAhfWlEt218G14kt+alby9LhORlfTBouliEuWevzbVdIQBbOUfG6/xTyMmAsLt0HGpSVDtp11FWR8elvIcC0mv/MsXL8R5UsyMyEr3eI7u8x3mxWnZB61Mv880j1txaf1tDG+bZR0zB0r/Y4dIM/V6oapyK+XQASUmIF4VAspMeUXRolZ7dVo1AglZhB4SczFz8gLemyHFLh+hli6qzKMj2QsnXMUtdyshS0tFgsT18phIdl+qBaS+SmNxczZcBAxFxaKjxeXloJwyqwRkGFbTFNvRZF0oOCtpainZPn/Qbo8xmL6LSd9TyO58wHzmV32uI9s7PDRqCfpy3dLffyXQ0dtgYcSU16LWq9KTCVmrS9HIyYoMYOAS2K++ZRYzOztYtpG3iYFh0yS+Ua6hrUubGEGtlebhTSG6OJ+kqH9GUtzLlNW/FxYID5gnBmFTZn5BdQTl94OMmwfs0h218t/8y2UL17xNmTsqOsh44cOh6yMlgf2GzxuxWD6Wbx5DfL5dqyDjB4qFjN5zl0I6yUQASVmIB7VQkpMJWa1lyICEUrMICCTmEueFIt5XAY9XdfOElNw5WSxmDwSxOljBqn+4tdTZrSSFbBAbRaV6ZSm/PnMvYi5sFAsUlyazFsmzxyF+EsWM0RTbOqtLJZ/ZfPfeh310GImTJ+FcOJEmad0R5m1vIitcjErNPJXLEZk6Yr5kNFXjYFMnnOPZDbt2XpIkHQy9KsSMwhWSkwlZpBXpFGSlZhBYCUx335CLOYpYzFHzBaTNiAjcE2rpxbDwWZoIRk227O6ygtlNPP8nrNIajNA5h2jvcYi+ws4boylyTUWs2Dhu8gQmy6bDyXNHCvhNPqYdbWYYvGKjI+ZcMt01OudaL63NCt4uGKp0mxJz/8g8pctQP7SNYsgo4eMhUyecy+k88NriWy5VyVmEN0rMWkxlZhBXpUGTVZiBoGzwuz1s+xxeUFPbBWLk5ouvuGQ6WI5O/STFUBxSTSZNfuOtJjlZi+f83vP4QlOLj8MWbYvB7LjjN6QXW7qC8ly1UZVjcXMy/wI+QpfWwEZayykd6asWY1Ja494d63Dxki+dHH6mEvE0hWtWIo8CbfIsLQ344tSr/NgT47Kmhrzl83DXeka2U0vevA4hJPn3Cc51Mc0SIlQYgbAUT2gxDQWU4lZ/eVoxBglZhBw+UO+711Z83pguXxlkZslE47RUTKd0GuUWM5eE2RvnqQu4htGxUm8r0TyF2Tlo8UzG09C5mRmQ0aZFTat2onlTR6djvguN/eD9F/8E4UmxjzghcydiCh4bRlkbLpYSO9tkyWc1kEKcDGvcxRYUi9dq1lMsXTFK5cgT8LU2ZCJE8THdPMrET4ffQBTY74ZjS1dbUZlaTFnPyA5CDTLm3ItVSgxg2ie74sSU4kZ5FVp0GQlZphwnvzIWM5VYinz9shoatHZPNSU2kMq7DIyHjdt+iRAFh4SS5mz4QTCJUfFt4xPEouaeHkK4lNHiaVMuSLQwnG0E5mqXsw8YcHGHYgtXPwOZLSxkIkzbkQ41m8xOSor7VatKuDebzHNAoOlC5FcvPItyITJ00SOEh/WxWPR/JWIj81TvgrXSbmyDTKIFDNEyiXNNBbTX05v/oeAEjPM90CJqcQM85WpU3YlZriwGUNQUig+Y/YHBajh+Psymlp8SMJuczJzYgcpUJZzAfnMYWIuby/xRVsPE18wdURnpMcky87qoa6AqSyRvYgK18lXJUVLlqOeqG5SX+KMmxGOTesE6a83RF+usqgQ5fKXim9YsupNU39PkV3SpF6PAYZflTjO1/QdO4B8FTlHIGMGj4dMmv2glNdrAAJKzAA4QggoMQFSVDclZghvS52zKDHDhc4Q01ks74hMK5zMPIuk85vOQBYeOw3pqSyBTDJniqTfehnCbYfJaVyeODP/yYM8OXrK0SfkvnTx5YkFLt68C5ElG8ViVmRlIRw1sB+kd7rMM8Z0EsvsCnUe0zRFi1nw30WIKV4to7IuYyHdtJTGQl50jpDP7Rbf28XvNY10x8qoMy2md9r9piUVVRFQYlZFI5R7JaagpMQM5W2pcx4lZp2hMwUdRPUVyzznuT0y6np6nfhURbtkT5xYt6R7eySigqRrxEdLGdED4ehE42NyFzrjC1b6xKct+egT5CteLxbSt1/ClQViQT3p4ksmTBiDfPGDr4B0x4fnu6LQxQvXvJZnH0IUZfVpUAIhz+nfRc9vQU26+W4zKrUb6ovpPpBNqayCgBKzChh1uuX7aAorMZWYdXqPHIWUmA5A6hwkQc30YEWZvKCl58T3zNsh85e5a/ahicpjpyDjkmReMaG/zFsmjR+E+PheHSF958USFq7cgHD5th0mXnxZ/x46I4YiPu7qIZCxaeK7+i0lYhvgUovPG3bN/mlU/03YVdhcQInZUNpVYoaHpJ+P/pvwylueW4nZWAomUU39FaXiWxYdlfnO/LV7kVK8cTdkrE9GbcvN1ykJg7ojvuKAzP95csRndZXKPGlU/z5Ijx97LWRcH/kaxZMoK43Cna9EJXppMggoMRtLFUrMxkK2RdSrxIyUmklU46P5is2Knd0y71i4bD2exH34sEiPWFiXT9aqutsmIz4+Ywxkq2tkJ3N3oqwg8n9nGeKKHlSilyaLgBIzUqpRYkYKaSvaUWJGWo0OgrJ5XwG/4liNqPINmyA9fbtDJs2WFTzRqbL7nd+HROrFi1pKImGFVGJGWo1KzEgj3izbU2I2S7XpQ9uOgBLTdg1r/5olAkrMZqk2fWjbEVBi2q5h7V+zRECJ2SzVpg9tOwJKTNs1rP1rlggoMZul2vShbUdAiWm7hrV/zRIBJWazVJs+tO0IKDFt17D2r1kioMRslmrTh7YdASWm7RrW/jVLBJSYzVJt+tC2I6DEtF3D2r9miYASs1mqTR/adgSUmLZrWPvXLBFQYjZLtdX9oQsL5fSu06flTJXu3WWHhLrXqCUbAwElZmOg2oTrVGI2YeVUeTTrifnss8+iu9/73vcgn376acgf/OAHVWC4dPulL30JgW7d5GyNJ5544lJiM7w7dOgQnvq+++6DfOONNwJ60atXL4Rvv/12yIceeiggPVKBESNGoKmvf/3rkLXpJ1LP83m3o8R0aECJqcR0vBKfS9B6Yv79738HsN///vchU1JSIPftkzNEOnSQM0OIPonZtWtXRD355JNMapaSljAvLw/PTzxatZL9aF977TXEf/e734X897//DUkcEIjAJTMzE62kpcnpZ8Q/Ak03ySaUmEpMvJhKzKbFzxZDzEcffRTIt23bFrJ///6QL774YoBGaCn4i02LefasnK7FF3jFihUo17p1a8h77703QP7sZz9D+Pz585D0dRG4eNm2bRtu6VOtXLkSYVry3/72twhv2bIF8oor5JzLn//85whPnDgRMtilY0c5NexrX/sasj788MM1FiE+w4YNQ/r48eMht2/fDkkffc+ePQj36NED8s9//jPkhAkTIP/yl79AZmdnQx42O8uvXbsW4QEDBkC++uqrkJ06yXmefL6bb74Z8TNmzIBk/9n+/v37ET9mzBjIP/3pT5DUJwIWXJSYSky8xkrMpsXmFkNM/pK/8sor0ABHAVevXo0wf4Frs5iM37FjB/L/4Q9/gMzPz4f81re+BclRT8bfcccdAfkSExMRpuVbtWoVwh988AFk795yate118opXvSNX375ZaTTsu7duxdhd5Ad2Oljst+33noryk2aNAly3LhxkJdffjkkL8XFcq4nn+eyyy5D0i9/+UvIt99+G/L555+HpCWlBaX86U9/ivSBAwdC/uQnP4GkhaQFpz4Y/41vfAP5aJn5nN/85jcR/8gjj0C2a9cOkhYYAQsuSkwlJl5jJWbTYnOLIyZ9OPqK77//PjRCX2rmzJkI08fkvF6bNnJmCC3i1KlTAzRJi0qLSJ/S6/Ui3+LFiyGnTZsGSQt01113IXzPPfdA0gIxHy3iggULkM7n5kKBhIQExNd2KSqSM1H++te/Isubb74JuX79+oAio0aNQpjPuW7dOoT5HPSVOarNwvSxaSFpOd977z1k4X8CzP+jH/0It1lZWZCvv/46pNNidu7cGfHTp0+H5H8gxJd6fOqpp5DOsQAELLgoMZWYeI2VmE2LzS2WmOfOnYMm+vXrB3n//fdDbtiwAZIWk6OmQ4cORfzJkychnfOfDzzwAOJpeZcvX44wLXB8fDzC9C3pc506dQrx7du3h+QgzGOPPYYw07mm9dNPP0V8MIvp88n5muwnfTEUvngpKCjA7fz58yHZ/9mzZyNMi855T1ooJFa50NLRd2V7tIgLFy6sktvl+vWvf40wLek777yDMOuhj1lSUoJ4rtQ6YE7WDqjM4oASU4mJ11uJ2bRY3mKJSTX885//DHgx+/btizBHRf/4xz8iTF9x06ZNCA8fPhySF86/0bLSN6UPxXk4yo0bN6IoLcbHH3+MMOfj/va3vyH81a9+FXL37t2QtCzBLOauXbuQf9CgQZCs3znIg8SLlzlz5uD2zJkzkBw9pcXnPG5UVBTSK83J2PS9uWKIo7Wcx3SOloZqMbmG96abbkJ7paVyAndMTAzCtMgcbeZ/Iki04KLEVGLiNVZiNi02t3hi8pf/mmuugWZoEe+++26EOdrHeT+uHHrmmWeQnpubCzlkyBBIWozrrrsOYf7S0ydlfq44+spXvoJ8HB0ePXo0wvQlWY7zd7QQzlFKFKpyYbv0lfk8//rXv5CLo6kffvghwvQRaSF/97vfIZ7t09IRlyVLliCd8438vvPBBx9EfH0tJueFuXLpV7/6FerlvC4lR5255heZLLgoMc2/ZEpMWXigxGwarG7xxKQatm7diluuFaVloMXkihvOq9HysTxHM7lCh74Y02lZaLGcFo+W+4YbbkARrghi+W9/+9u45TwkLSB9WOZzyjVr1iCKviotsXM+MiMjA/loyTmKzBU2XPvLcuw/8SFeHJ0OZjE3b96M9vgfBn1njoLze8zHH38c+X784x9D8jJ48GDczp07F5L/sTC9uUslptGgElOJ2ZTIbD0xGxps+jQc5eT3g/TFGqo97jzA+cekpCRUzfY5KpuamhpSk2VlZcj3ySefQHItLC2Px+P5zHo4KkuLy9FdrsT5zMINkMh515ycHNRG37kBqm6SVSgxw1QLiaHElEXvSswwX6AQsysxQwRKsykCkURAiRlJtLUtRSBEBJSYIQKl2RSBSCKgxIwk2tqWIhAiAkrMEIHSbIpAJBFQYkYSbW1LEQgRASVmiEDVNxtX9nBFTHp6eo1Vcn6Sa0/5HWaNmRswkvOm3DmAK3+cTRw5cgRRts8jOvsd6bASM0KIKzEjBLQlzSgxI6RI7gTAL/e5tw8tVV3PFjlx4gR68Jvf/AaS32GOHDkS4TvvvBOS+9IicPHCNbD/+Mc/EMX9WpnOtbPcUeHKK69EEhe5c83wrFmzWERlAyKgxGxAMD+rKiXmZ6GjaU4ElJhORBo4zB0B+vTpg5q5JxB9R+77WtezRbhDAff44Y7w3MH8ueeeQ7vcO4jtcyf3//znP0hnmOW4fyzXyPK7TS5F5D68tLTJyckNjFzLrk6J2cj6V2I2MsCWVq/EbGTF0pfj95Xc44fN8gt97g7HncmZTklfj9+Lcm+gLl26IAu/+uC5nrSg/PqEO8ezvh/+8Ie45egvv2JhOnecnzdvHqKcz0Uflj4n94tleZX1Q0CJWT/8gpZWYgaFSDPUgIASswZQGjKKm1zxu03uF8s26GNyLx/uvcM9hnhmB79/ZDn6pNwJgKdzMZ0Wj99bci8jnovJfW25Gx1P12J7Y8eORVW1zWdyT56jR48in/M/AT6HyrohoMSsG24hl1JihgyVZqyCgBKzChiNccu9aL7zne+geu5lw7b44XW4Z4vUtmPC0qVLUTV31eP8JfcsYrs8n5NnrHDXu2PHjiEL9/bh+ZPcD5fl+S86dwvkOZhMV1k/BJSY9cMvaGklZlCINEMNCCgxawClIaN4WpfzlDCOmvKsD+eoKPe4qe1sES5Y4F4+3EXvhRdewONzHpIrgriDOX1Thp2nhdGSch9ZWmBaUq6l5XPRkvI0sIbEriXXpcRsZO0rMRsZYEurV2I2smK54znnAXm+Jde0cuUOV9Q4R1/5eBxE4oIFnibGczl5wjRP16JvyfKUXONKi0nLx3RKrujhqV88L5P72dIn5j653P6T5VXWDwElZv3wC1paiRkUIs1QAwJKzBpAacio66+/HtXxCAbOY9b3bBFaXq7Bfemll9AOB5ucfejUqROiOF/KlTpcKzt58mSk87nom3L0lT4kR2v5NQzX4HIHeme7Gq4bAkrMuuEWciklZshQacYqCCgxq4DRGLe/+MUvUO3OnTshOV/Itup6tghPt+L3lqyvNknLR0vHeU6O4jrL0Ufl6Oxtt90WkIXngfKIeNvOpwzo7OcQUGI2MuhKzEYG2NLqlZiNrNgDBw6gBX4Vsm/fPoSdK3c4H1nXs0Xq2g2O8rJd+qzOeVXWz/zMxzW5/KqF+VTWDwElZv3wC1paiRkUIs1QAwJKzBpAaYwojoJ6vV5U//vf/74xmmn0Onmyc0lJCdrid6KN3nALa0CJGSGFKzEjBLQlzSgxI6RIrn1dtGgRWuQJzxFqvsGa4e5+3B0vUsfwNVgHmklFSswIKUqJGSGgLWlGiWmJIrUbdiGgxLRLn9obSxBQYlqiSO2GXQgoMe3Sp/bGEgSUmJYoUrthFwJKTLv0qb2xBAElpiWK1G7YhYAS0y59am8sQUCJaYkitRt2IaDEtEuf2htLEFBiWqJI7YZdCCgx7dKn9sYSBJSYlihSu2EXAkpMu/SpvbEEASWmJYrUbtiFgBLTLn1qbyxBQIlpiSK1G3YhoMS0S5/aG0sQUGJaokjthl0IKDHt0qf2xhIElJiWKFK7YRcCSky79Km9sQQBJaYlitRu2IWAEtMufWpvLEFAiWmJIrUbdiGgxLRLn9obSxBQYlqiSO2GXQgoMe3Sp/bGEgSUmJYoUrthFwJKTLv0qb2xBAElpiWK1G7YhYAS0y59am8sQUCJaYkitRt2IaDEtEuf2htLEFBiWqJI7YZdCCgx7dKn9sYSBJSYlihSu2EXAkpMu/SpvbEEASWmJYrUbtiFgBLTLn1qbyxBQIlpiSK1G3YhoMS0S5/aG0sQUGJaokjthl0IKDHt0qf2xhIElJiWKFK7YRcCSky79Km9sQQBJaYlitRu2IWAEtMufWpvLEFAiWmJIrUbdiGgxLRLn9obSxBQYlqiSO2GXQgoMe3Sp/bGEgSUmJYoUrthFwJKTLv0qb2xBAElpiWK1G7YhYAS0y59am8sQUCJaYkitRt2IaDEtEuf2htLEFBiWqJI7YZdCCgx7dKn9sYSBJSYlihSu2EXAkpMu/SpvbEEASWmJYrUbtiFgBLTLn1qbyxBQIlpiSK1G3YhoMS0S5/aG0sQ+H98gYxUCH6vOAAAAABJRU5ErkJggg==;" vertex="1" parent="VmEzqJkTYnfE0PAo-2xh-4">
          <mxGeometry x="21.115000000000123" y="8.994999999999948" width="164.88" height="271" as="geometry" />
        </mxCell>
        <mxCell id="VmEzqJkTYnfE0PAo-2xh-6" value="" style="group" vertex="1" connectable="0" parent="7XxUG1S-9eU-qmTFgwDG-1">
          <mxGeometry x="50" y="280" width="490" height="290" as="geometry" />
        </mxCell>
        <mxCell id="xUQiXHp4aiqGHPB1Ps-X-21" value="" style="rounded=1;whiteSpace=wrap;html=1;fillColor=none;dashed=1;" vertex="1" parent="VmEzqJkTYnfE0PAo-2xh-6">
          <mxGeometry x="6" y="-8" width="434" height="298" as="geometry" />
        </mxCell>
        <mxCell id="xUQiXHp4aiqGHPB1Ps-X-11" value="Amazon &lt;br&gt;CloudFront" style="sketch=0;points=[[0,0,0],[0.25,0,0],[0.5,0,0],[0.75,0,0],[1,0,0],[0,1,0],[0.25,1,0],[0.5,1,0],[0.75,1,0],[1,1,0],[0,0.25,0],[0,0.5,0],[0,0.75,0],[1,0.25,0],[1,0.5,0],[1,0.75,0]];outlineConnect=0;fontColor=#232F3E;fillColor=#8C4FFF;strokeColor=#ffffff;dashed=0;verticalLabelPosition=bottom;verticalAlign=top;align=center;html=1;fontSize=12;fontStyle=0;aspect=fixed;shape=mxgraph.aws4.resourceIcon;resIcon=mxgraph.aws4.cloudfront;" vertex="1" parent="VmEzqJkTYnfE0PAo-2xh-6">
          <mxGeometry x="25" y="29" width="78" height="78" as="geometry" />
        </mxCell>
        <mxCell id="xUQiXHp4aiqGHPB1Ps-X-12" value="Network &lt;br&gt;Load Balancer" style="sketch=0;outlineConnect=0;fontColor=#232F3E;gradientColor=none;fillColor=#8C4FFF;strokeColor=none;dashed=0;verticalLabelPosition=bottom;verticalAlign=top;align=center;html=1;fontSize=12;fontStyle=0;aspect=fixed;pointerEvents=1;shape=mxgraph.aws4.network_load_balancer;" vertex="1" parent="VmEzqJkTYnfE0PAo-2xh-6">
          <mxGeometry x="176.5" y="29" width="78" height="78" as="geometry" />
        </mxCell>
        <mxCell id="xUQiXHp4aiqGHPB1Ps-X-13" value="AWS Fargate" style="sketch=0;points=[[0,0,0],[0.25,0,0],[0.5,0,0],[0.75,0,0],[1,0,0],[0,1,0],[0.25,1,0],[0.5,1,0],[0.75,1,0],[1,1,0],[0,0.25,0],[0,0.5,0],[0,0.75,0],[1,0.25,0],[1,0.5,0],[1,0.75,0]];outlineConnect=0;fontColor=#232F3E;fillColor=#ED7100;strokeColor=#ffffff;dashed=0;verticalLabelPosition=bottom;verticalAlign=top;align=center;html=1;fontSize=12;fontStyle=0;aspect=fixed;shape=mxgraph.aws4.resourceIcon;resIcon=mxgraph.aws4.fargate;" vertex="1" parent="VmEzqJkTYnfE0PAo-2xh-6">
          <mxGeometry x="310" y="39" width="78" height="78" as="geometry" />
        </mxCell>
        <mxCell id="xUQiXHp4aiqGHPB1Ps-X-14" value="Amazon&lt;br&gt;ECR" style="sketch=0;points=[[0,0,0],[0.25,0,0],[0.5,0,0],[0.75,0,0],[1,0,0],[0,1,0],[0.25,1,0],[0.5,1,0],[0.75,1,0],[1,1,0],[0,0.25,0],[0,0.5,0],[0,0.75,0],[1,0.25,0],[1,0.5,0],[1,0.75,0]];outlineConnect=0;fontColor=#232F3E;fillColor=#ED7100;strokeColor=#ffffff;dashed=0;verticalLabelPosition=bottom;verticalAlign=top;align=center;html=1;fontSize=12;fontStyle=0;aspect=fixed;shape=mxgraph.aws4.resourceIcon;resIcon=mxgraph.aws4.ecr;" vertex="1" parent="VmEzqJkTYnfE0PAo-2xh-6">
          <mxGeometry x="310" y="160" width="78" height="78" as="geometry" />
        </mxCell>
        <mxCell id="VmEzqJkTYnfE0PAo-2xh-9" value="Streaming&lt;br&gt;RPC" style="text;html=1;strokeColor=none;fillColor=none;align=center;verticalAlign=middle;whiteSpace=wrap;rounded=0;" vertex="1" parent="VmEzqJkTYnfE0PAo-2xh-6">
          <mxGeometry x="436" y="70" width="60" height="30" as="geometry" />
        </mxCell>
        <mxCell id="VmEzqJkTYnfE0PAo-2xh-8" style="edgeStyle=orthogonalEdgeStyle;rounded=0;orthogonalLoop=1;jettySize=auto;html=1;entryX=1;entryY=0.75;entryDx=0;entryDy=0;entryPerimeter=0;" edge="1" parent="VmEzqJkTYnfE0PAo-2xh-6">
          <mxGeometry relative="1" as="geometry">
            <mxPoint x="510" y="90" as="sourcePoint" />
            <mxPoint x="388" y="98.5" as="targetPoint" />
            <Array as="points">
              <mxPoint x="510" y="99" />
              <mxPoint x="449" y="99" />
            </Array>
          </mxGeometry>
        </mxCell>
        <mxCell id="VmEzqJkTYnfE0PAo-2xh-7" style="edgeStyle=orthogonalEdgeStyle;rounded=0;orthogonalLoop=1;jettySize=auto;html=1;entryX=0.25;entryY=1;entryDx=0;entryDy=0;" edge="1" parent="7XxUG1S-9eU-qmTFgwDG-1" source="xUQiXHp4aiqGHPB1Ps-X-13" target="VmEzqJkTYnfE0PAo-2xh-2">
          <mxGeometry relative="1" as="geometry">
            <Array as="points">
              <mxPoint x="460" y="349" />
              <mxPoint x="460" y="349" />
            </Array>
          </mxGeometry>
        </mxCell>
        <mxCell id="VmEzqJkTYnfE0PAo-2xh-10" value="" style="endArrow=none;html=1;rounded=0;exitX=0.806;exitY=0.58;exitDx=0;exitDy=0;exitPerimeter=0;" edge="1" parent="7XxUG1S-9eU-qmTFgwDG-1" source="Y3-uRsAepT4GnmPrBAEX-2">
          <mxGeometry width="50" height="50" relative="1" as="geometry">
            <mxPoint x="30" y="410" as="sourcePoint" />
            <mxPoint x="80" y="360" as="targetPoint" />
          </mxGeometry>
        </mxCell>
        <mxCell id="VmEzqJkTYnfE0PAo-2xh-15" value="SpeechToSpeech Service" style="text;html=1;strokeColor=none;fillColor=none;align=center;verticalAlign=middle;whiteSpace=wrap;rounded=0;" vertex="1" parent="7XxUG1S-9eU-qmTFgwDG-1">
          <mxGeometry x="71" y="270" width="159" height="30" as="geometry" />
        </mxCell>
        <mxCell id="VmEzqJkTYnfE0PAo-2xh-11" value="" style="endArrow=none;html=1;rounded=0;exitX=0.806;exitY=0.58;exitDx=0;exitDy=0;exitPerimeter=0;" edge="1" parent="1">
          <mxGeometry width="50" height="50" relative="1" as="geometry">
            <mxPoint x="254" y="323" as="sourcePoint" />
            <mxPoint x="425" y="510" as="targetPoint" />
          </mxGeometry>
        </mxCell>
        <mxCell id="VmEzqJkTYnfE0PAo-2xh-12" value="Websocket" style="text;html=1;strokeColor=none;fillColor=none;align=center;verticalAlign=middle;whiteSpace=wrap;rounded=0;" vertex="1" parent="1">
          <mxGeometry x="269" y="400" width="60" height="30" as="geometry" />
        </mxCell>
        <mxCell id="VmEzqJkTYnfE0PAo-2xh-13" value="" style="endArrow=classic;html=1;rounded=0;exitX=0;exitY=0.5;exitDx=0;exitDy=0;exitPerimeter=0;entryX=1.071;entryY=0.32;entryDx=0;entryDy=0;entryPerimeter=0;" edge="1" parent="1" source="xUQiXHp4aiqGHPB1Ps-X-2" target="Y3-uRsAepT4GnmPrBAEX-2">
          <mxGeometry width="50" height="50" relative="1" as="geometry">
            <mxPoint x="330" y="250" as="sourcePoint" />
            <mxPoint x="380" y="200" as="targetPoint" />
          </mxGeometry>
        </mxCell>
        <mxCell id="VmEzqJkTYnfE0PAo-2xh-14" value="HTTPS" style="edgeLabel;html=1;align=center;verticalAlign=middle;resizable=0;points=[];" vertex="1" connectable="0" parent="VmEzqJkTYnfE0PAo-2xh-13">
          <mxGeometry x="0.2006" y="2" relative="1" as="geometry">
            <mxPoint y="1" as="offset" />
          </mxGeometry>
        </mxCell>
      </root>
    </mxGraphModel>
  </diagram>
</mxfile>
